# xmcd
#
# Track frame offsets: 
#        150
#        14625
#        29860
#        46557
#        62759
#        76651
#        95036
#        124321
#        142034
#        154931
#        173446
#        185699
#        200429
#        216444
#        237357
#        254652
#        277667
#        295282
#        315122
#        332855
#
# Disc length: 4641 seconds
#
# Revision: 0
# Processed by: cddbd v1.5.2PL0 Copyright (c) Steve Scherf et al.
# Submitted via: ExactAudioCopy v1.0b4
#
DISCID=29121f14
DTITLE=Chet Atkins - The Best
DYEAR=1900
DGENRE=Instrumental
TTITLE0=Borsalino
TTITLE1=To'B' Or Not To'B'  
TTITLE2=The Day Finger Pickers Took Over The World
TTITLE3=Saltwater
TTITLE4=Road To Gundaghi- Waltzing Matilda
TTITLE5=Poor Boy Blues
TTITLE6=There'll Be Some Changes Made
TTITLE7=Tears
TTITLE8=Limehouse Blues
TTITLE9=I Surrender Dear
TTITLE10=Brasil
TTITLE11=Young Thing
TTITLE12=After You've Gone
TTITLE13=Dream
TTITLE14=Vincent
TTITLE15=Summertime
TTITLE16=Major Attempt At A Minor Thing
TTITLE17=Nifty Fifties
TTITLE18=Classical Gas
TTITLE19=Ave Maria
EXTD=
EXTT0=
EXTT1=
EXTT2=
EXTT3=
EXTT4=
EXTT5=
EXTT6=
EXTT7=
EXTT8=
EXTT9=
EXTT10=
EXTT11=
EXTT12=
EXTT13=
EXTT14=
EXTT15=
EXTT16=
EXTT17=
EXTT18=
EXTT19=
PLAYORDER=
